<svg width="32" height="33" viewBox="0 0 32 33" fill="none" xmlns="http://www.w3.org/2000/svg">
<rect x="0.5" y="1" width="31" height="31" rx="4.5" stroke="#CACBCE"/>
<path d="M16 10.25C16.256 10.25 16.4636 10.4579 16.4639 10.7139V16.0361H21.7861C22.0421 16.0364 22.25 16.244 22.25 16.5C22.25 16.756 22.0421 16.9636 21.7861 16.9639H16.4639V22.2861C16.4636 22.5421 16.256 22.75 16 22.75C15.744 22.75 15.5364 22.5421 15.5361 22.2861V16.9639H10.2139C9.95792 16.9636 9.75 16.756 9.75 16.5C9.75 16.244 9.95792 16.0364 10.2139 16.0361H15.5361V10.7139C15.5364 10.4579 15.744 10.25 16 10.25Z" fill="black" stroke="#001A50"/>
</svg>
