<svg width="42" height="42" viewBox="0 0 42 42" fill="none" xmlns="http://www.w3.org/2000/svg">
<rect width="42" height="42" rx="5" fill="#FFCDD2"/>
<path d="M19.4951 13.1667H22.5068C22.8063 13.1668 23.0932 13.3257 23.2998 13.6462L24.3066 15.3904L24.4502 15.6404H27.167V16.1248H26.2148V26.5212C26.2147 27.3562 25.5683 27.9995 24.8105 27.9998H17.1914C16.4334 27.9998 15.7863 27.3564 15.7861 26.5212V16.1248H14.834V15.6404H17.5508L17.6953 15.3904L18.708 13.6355V13.6345C18.8776 13.3389 19.1798 13.1667 19.4951 13.1667ZM16.2148 26.5212C16.215 27.0523 16.6345 27.5154 17.1914 27.5154H24.8105C25.3662 27.5152 25.786 27.051 25.7861 26.5212V16.1248H16.2148V26.5212ZM19.6016 13.6511C19.3896 13.6512 19.1882 13.7525 19.0615 13.9226L19.0117 13.9988L18.4961 14.8904L18.0625 15.6404H23.9385L23.5049 14.8904L22.9854 13.99H22.9844C22.8632 13.7777 22.6369 13.6511 22.3994 13.6511H19.6016Z" fill="black" stroke="#D32F2F"/>
</svg>
