<svg width="42" height="42" viewBox="0 0 42 42" fill="none" xmlns="http://www.w3.org/2000/svg">
<rect width="42" height="42" rx="5" fill="#F2F5FF"/>
<path d="M18.5 27.8749H14.75C14.5842 27.8749 14.4253 27.8091 14.3081 27.6918C14.1908 27.5746 14.125 27.4157 14.125 27.2499V23.7588C14.125 23.6767 14.1412 23.5954 14.1726 23.5196C14.204 23.4438 14.25 23.3749 14.3081 23.3168L23.6831 13.9418C23.8003 13.8246 23.9592 13.7588 24.125 13.7588C24.2908 13.7588 24.4497 13.8246 24.5669 13.9418L28.0581 17.433C28.1753 17.5502 28.2411 17.7091 28.2411 17.8749C28.2411 18.0407 28.1753 18.1996 28.0581 18.3168L18.5 27.8749ZM18.5 27.8749H27.875M18.5 27.8749L14.1648 23.5397M21.625 15.9999L26 20.3749" stroke="#001A50" stroke-width="1.5" stroke-linecap="round" stroke-linejoin="round"/>
</svg>
