<svg width="27" height="27" viewBox="0 0 27 27" fill="none" xmlns="http://www.w3.org/2000/svg">
<g clip-path="url(#clip0_252_1468)">
<path d="M13.5 23.4995C19.0228 23.4995 23.5 19.0224 23.5 13.4995C23.5 7.97666 19.0228 3.49951 13.5 3.49951C7.97715 3.49951 3.5 7.97666 3.5 13.4995C3.5 19.0224 7.97715 23.4995 13.5 23.4995Z" stroke="#262526" stroke-width="2" stroke-miterlimit="10" stroke-linecap="round"/>
<path d="M12.8887 15.7524V15.1399C12.8887 14.5415 13.0229 14.2282 13.3367 13.7944L14.3383 12.4194C14.8608 11.7024 15.04 11.3586 15.04 10.8503C15.04 9.9986 14.4425 9.46068 13.5904 9.46068C12.7537 9.46068 12.2158 9.9686 12.0367 10.8803C12.0217 10.9699 11.9621 11.0149 11.8721 10.9999L10.9308 10.8353C10.8408 10.8203 10.7962 10.7607 10.8108 10.6707C11.0354 9.2361 12.0667 8.29443 13.6208 8.29443C15.2342 8.29443 16.325 9.35527 16.325 10.8349C16.325 11.5524 16.0717 12.0753 15.5633 12.7778L14.5621 14.1528C14.2633 14.5561 14.1733 14.7653 14.1733 15.2732V15.7511C14.1733 15.8407 14.1137 15.9003 14.0242 15.9003H13.0379C12.9483 15.9019 12.8887 15.8419 12.8887 15.7524ZM12.8142 17.1874C12.8142 17.0978 12.8737 17.0382 12.9637 17.0382H14.0996C14.1892 17.0382 14.2487 17.0982 14.2487 17.1874V18.4724C14.2487 18.5624 14.1887 18.6215 14.0996 18.6215H12.9637C12.8733 18.6215 12.8142 18.5619 12.8142 18.4724V17.1874Z" fill="#262526"/>
</g>
<defs>
<clipPath id="clip0_252_1468">
<rect width="26" height="26" fill="white" transform="translate(0.5 0.5)"/>
</clipPath>
</defs>
</svg>
