<svg width="36" height="35" viewBox="0 0 36 35" fill="none" xmlns="http://www.w3.org/2000/svg">
<path d="M28.8127 27.4053C29.7097 27.1217 30.2049 26.1704 29.919 25.2808C29.6331 24.3912 28.6741 23.8998 27.7773 24.1834L28.8127 27.4053ZM14.9538 26.3406C14.0129 26.3658 13.2707 27.1429 13.2961 28.0764C13.3216 29.0097 14.105 29.746 15.0461 29.7208L14.9538 26.3406ZM26.7632 26.5182C27.1764 27.3573 28.1968 27.7054 29.0429 27.2957C29.8888 26.8859 30.2397 25.8737 29.8268 25.0344L26.7632 26.5182ZM26.8414 22.8231L25.278 23.4967C25.288 23.5197 25.2987 23.5425 25.3096 23.565L26.8414 22.8231ZM24.641 14.7796L26.3332 14.576C26.3303 14.5514 26.3266 14.5271 26.3225 14.5027L24.641 14.7796ZM15.0154 3.81212C14.0741 3.81212 13.3109 4.56911 13.3109 5.50288C13.3109 6.43666 14.0741 7.19365 15.0154 7.19365V3.81212ZM15.0154 7.19365C15.9567 7.19365 16.7199 6.43666 16.7199 5.50288C16.7199 4.56911 15.9567 3.81212 15.0154 3.81212V7.19365ZM5.35886 14.7818L3.67748 14.5043C3.67337 14.5289 3.6698 14.5534 3.6668 14.578L5.35886 14.7818ZM3.15854 22.8231L4.69022 23.565C4.70127 23.5425 4.71183 23.5197 4.72188 23.4967L3.15854 22.8231ZM0.173277 25.0344C-0.239755 25.8737 0.111187 26.8859 0.957114 27.2957C1.80304 27.7054 2.8236 27.3573 3.23663 26.5182L0.173277 25.0344ZM13.3109 5.50288C13.3109 6.43666 14.0741 7.19365 15.0154 7.19365C15.9567 7.19365 16.7199 6.43666 16.7199 5.50288H13.3109ZM16.7199 1.69077C16.7199 0.75699 15.9567 0 15.0154 0C14.0741 0 13.3109 0.75699 13.3109 1.69077H16.7199ZM13.3109 5.50288C13.3109 6.43666 14.0741 7.19365 15.0154 7.19365C15.9567 7.19365 16.7199 6.43666 16.7199 5.50288H13.3109ZM16.7199 1.69077C16.7199 0.75699 15.9567 0 15.0154 0C14.0741 0 13.3109 0.75699 13.3109 1.69077H16.7199ZM2.22266 24.1834C1.32578 23.8998 0.366906 24.3912 0.0809835 25.2808C-0.204939 26.1704 0.290341 27.1217 1.18722 27.4053L2.22266 24.1834ZM14.9538 29.7208C15.8949 29.746 16.6783 29.0097 16.7038 28.0764C16.7292 27.1429 15.987 26.3658 15.0461 26.3406L14.9538 29.7208ZM12.2728 27.6677C12.2728 26.734 11.5096 25.9769 10.5683 25.9769C9.62692 25.9769 8.86381 26.734 8.86381 27.6677H12.2728ZM21.1473 27.6677C21.1473 26.734 20.3841 25.9769 19.4428 25.9769C18.5014 25.9769 17.7383 26.734 17.7383 27.6677H21.1473ZM27.7773 24.1834C23.6199 25.4981 19.305 26.2238 14.9538 26.3406L15.0461 29.7208C19.7182 29.5956 24.3506 28.8163 28.8127 27.4053L27.7773 24.1834ZM29.8268 25.0344L28.3732 22.0812L25.3096 23.565L26.7632 26.5182L29.8268 25.0344ZM28.4048 22.1495C27.3512 19.7436 26.653 17.1915 26.3332 14.576L22.949 14.9831C23.3083 17.9215 24.0928 20.7903 25.278 23.4967L28.4048 22.1495ZM26.3225 14.5027C25.8396 11.617 24.811 8.93854 22.9424 6.96364C21.0284 4.94089 18.3792 3.81212 15.0154 3.81212V7.19365C17.5437 7.19365 19.2564 8.00925 20.4568 9.27787C21.7025 10.5943 22.5408 12.5542 22.9597 15.0564L26.3225 14.5027ZM15.0154 3.81212C11.6514 3.81212 8.9964 4.94033 7.07569 6.9612C5.19925 8.9355 4.16219 11.6145 3.67748 14.5043L7.04024 15.0593C7.45961 12.559 8.30379 10.5985 9.55611 9.28087C10.7642 8.00982 12.4855 7.19365 15.0154 7.19365V3.81212ZM3.6668 14.578C3.34679 17.1928 2.64851 19.7443 1.59519 22.1495L4.72188 23.4967C5.90679 20.7912 6.69143 17.923 7.05094 14.9856L3.6668 14.578ZM1.62687 22.0812L0.173277 25.0344L3.23663 26.5182L4.69022 23.565L1.62687 22.0812ZM16.7199 5.50288V1.69077H13.3109V5.50288H16.7199ZM16.7199 5.50288V1.69077H13.3109V5.50288H16.7199ZM1.18722 27.4053C5.6493 28.8163 10.2818 29.5956 14.9538 29.7208L15.0461 26.3406C10.695 26.2238 6.38007 25.4981 2.22266 24.1834L1.18722 27.4053ZM8.86381 27.6677V28.7949H12.2728V27.6677H8.86381ZM8.86381 28.7949C8.86381 32.1814 11.573 35 15.0054 35V31.6185C13.5366 31.6185 12.2728 30.3948 12.2728 28.7949H8.86381ZM15.0054 35C18.4378 35 21.1473 32.1814 21.1473 28.7949H17.7383C17.7383 30.3948 16.4742 31.6185 15.0054 31.6185V35ZM21.1473 28.7949V27.6677H17.7383V28.7949H21.1473Z" fill="#002060"/>
<path d="M34.5043 3.27273V12H32.6591V5.02415H32.608L30.6094 6.27699V4.64062L32.7699 3.27273H34.5043Z" fill="black"/>
</svg>
