<svg width="37" height="37" viewBox="0 0 37 37" fill="none" xmlns="http://www.w3.org/2000/svg">
<path d="M15.0147 20.5001C14.4795 19.9649 13.6119 19.9649 13.0767 20.5001C12.5415 21.0353 12.5415 21.9029 13.0767 22.4381L15.0147 20.5001ZM17.0148 24.4382L16.0458 25.4072C16.581 25.9424 17.4487 25.9424 17.9838 25.4072L17.0148 24.4382ZM23.9221 19.469C24.4573 18.9338 24.4573 18.0661 23.9221 17.531C23.3869 16.9958 22.5193 16.9958 21.9841 17.531L23.9221 19.469ZM28.8914 11.0771H27.521V28.8919H28.8914H30.2617V11.0771H28.8914ZM25.9222 31.8611V30.4907H11.0766V31.8611V33.2314H25.9222V31.8611ZM8.10742 28.8919H9.47779V11.0771H8.10742H6.73705V28.8919H8.10742ZM11.0766 8.10799V9.47836H14.0457V8.10799V6.73762H11.0766V8.10799ZM22.9531 8.10799V9.47836H25.9222V8.10799V6.73762H22.9531V8.10799ZM11.0766 31.8611V30.4907C10.1936 30.4907 9.47779 29.7749 9.47779 28.8919H8.10742H6.73705C6.73705 31.2886 8.67991 33.2314 11.0766 33.2314V31.8611ZM28.8914 28.8919H27.521C27.521 29.7749 26.8052 30.4907 25.9222 30.4907V31.8611V33.2314C28.3189 33.2314 30.2617 31.2886 30.2617 28.8919H28.8914ZM28.8914 11.0771H30.2617C30.2617 8.68048 28.3189 6.73762 25.9222 6.73762V8.10799V9.47836C26.8052 9.47836 27.521 10.1942 27.521 11.0771H28.8914ZM8.10742 11.0771H9.47779C9.47779 10.1942 10.1936 9.47836 11.0766 9.47836V8.10799V6.73762C8.67991 6.73762 6.73705 8.68048 6.73705 11.0771H8.10742ZM14.0457 21.4691L13.0767 22.4381L16.0458 25.4072L17.0148 24.4382L17.9838 23.4692L15.0147 20.5001L14.0457 21.4691ZM17.0148 24.4382L17.9838 25.4072L23.9221 19.469L22.9531 18.5L21.9841 17.531L16.0458 23.4692L17.0148 24.4382ZM17.0148 5.13885V6.50923H19.984V5.13885V3.76848H17.0148V5.13885ZM19.984 11.0771V9.70676H17.0148V11.0771V12.4475H19.984V11.0771ZM17.0148 11.0771V9.70676C16.1319 9.70676 15.4161 8.99096 15.4161 8.10799H14.0457H12.6753C12.6753 10.5046 14.6182 12.4475 17.0148 12.4475V11.0771ZM22.9531 8.10799H21.5827C21.5827 8.99096 20.8669 9.70676 19.984 9.70676V11.0771V12.4475C22.3806 12.4475 24.3235 10.5046 24.3235 8.10799H22.9531ZM19.984 5.13885V6.50923C20.8669 6.50923 21.5827 7.22502 21.5827 8.10799H22.9531H24.3235C24.3235 5.71135 22.3806 3.76848 19.984 3.76848V5.13885ZM17.0148 5.13885V3.76848C14.6182 3.76848 12.6753 5.71135 12.6753 8.10799H14.0457H15.4161C15.4161 7.22502 16.1319 6.50923 17.0148 6.50923V5.13885Z" fill="#262526"/>
</svg>
