<svg width="37" height="37" viewBox="0 0 37 37" fill="none" xmlns="http://www.w3.org/2000/svg">
<path d="M3.42578 26.7037V23.963H7.22278L6.67049 23.4833C5.47386 22.4327 4.63392 21.2336 4.15066 19.8861C3.66741 18.5386 3.42578 17.1796 3.42578 15.8093C3.42578 13.2741 4.19093 11.0187 5.72124 9.04305C7.25154 7.06743 9.24784 5.75987 11.7101 5.12036V7.99814C10.0533 8.59197 8.71856 9.60262 7.70603 11.0301C6.6935 12.4576 6.18723 14.0506 6.18723 15.8093C6.18723 16.837 6.38284 17.8363 6.77404 18.8069C7.16525 19.7776 7.77507 20.6741 8.6035 21.4963L8.94868 21.8389V18.4815H11.7101V26.7037H3.42578ZM28.1753 14.3704H25.3793C25.2643 13.571 25.0169 12.8059 24.6372 12.075C24.2575 11.3441 23.7455 10.6475 23.1011 9.98518L22.7559 9.64259V13H19.9945V4.77777H28.2788V7.51851H24.4818L25.0341 7.99814C25.9776 8.9574 26.7025 9.97376 27.2088 11.0472C27.715 12.1207 28.0372 13.2284 28.1753 14.3704ZM22.7559 30.8148L22.3417 28.7593C22.0656 28.6451 21.8067 28.5251 21.5651 28.3995C21.3234 28.2739 21.0761 28.1197 20.8229 27.937L18.8209 28.5537L17.4401 26.2241L19.028 24.8537C18.982 24.5339 18.9589 24.237 18.9589 23.963C18.9589 23.6889 18.982 23.392 19.028 23.0722L17.4401 21.7018L18.8209 19.3722L20.8229 19.9889C21.0761 19.8062 21.3234 19.652 21.5651 19.5264C21.8067 19.4008 22.0656 19.2809 22.3417 19.1667L22.7559 17.1111H25.5174L25.9316 19.1667C26.2078 19.2809 26.4666 19.4065 26.7083 19.5435C26.9499 19.6805 27.1973 19.8518 27.4504 20.0574L29.4525 19.3722L30.8332 21.7704L29.2454 23.1407C29.2914 23.4148 29.3144 23.7003 29.3144 23.9972C29.3144 24.2941 29.2914 24.5796 29.2454 24.8537L30.8332 26.2241L29.4525 28.5537L27.4504 27.937C27.1973 28.1197 26.9499 28.2739 26.7083 28.3995C26.4666 28.5251 26.2078 28.6451 25.9316 28.7593L25.5174 30.8148H22.7559ZM24.1367 26.7037C24.8961 26.7037 25.5462 26.4353 26.0869 25.8986C26.6277 25.3619 26.8981 24.7167 26.8981 23.963C26.8981 23.2093 26.6277 22.564 26.0869 22.0273C25.5462 21.4906 24.8961 21.2222 24.1367 21.2222C23.3773 21.2222 22.7272 21.4906 22.1864 22.0273C21.6456 22.564 21.3752 23.2093 21.3752 23.963C21.3752 24.7167 21.6456 25.3619 22.1864 25.8986C22.7272 26.4353 23.3773 26.7037 24.1367 26.7037Z" fill="#0057D9"/>
</svg>
