<svg width="37" height="37" viewBox="0 0 37 37" fill="none" xmlns="http://www.w3.org/2000/svg">
<path d="M6.62354 8.10798C6.62354 7.28808 7.2882 6.62341 8.1081 6.62341H28.8921C29.712 6.62341 30.3766 7.28808 30.3766 8.10798V11.0771C30.3766 11.897 29.712 12.5617 28.8921 12.5617H8.1081C7.2882 12.5617 6.62354 11.897 6.62354 11.0771V8.10798Z" stroke="#262526" stroke-width="2.74074" stroke-linecap="round" stroke-linejoin="round"/>
<path d="M6.62354 19.9845C6.62354 19.1646 7.2882 18.5 8.1081 18.5H17.0155C17.8354 18.5 18.5001 19.1646 18.5001 19.9845V28.8919C18.5001 29.7118 17.8354 30.3765 17.0155 30.3765H8.1081C7.2882 30.3765 6.62354 29.7118 6.62354 28.8919V19.9845Z" stroke="#262526" stroke-width="2.74074" stroke-linecap="round" stroke-linejoin="round"/>
<path d="M24.4383 19.9845C24.4383 19.1646 25.103 18.5 25.9229 18.5H28.8921C29.712 18.5 30.3766 19.1646 30.3766 19.9845V28.8919C30.3766 29.7118 29.712 30.3765 28.8921 30.3765H25.9229C25.103 30.3765 24.4383 29.7118 24.4383 28.8919V19.9845Z" stroke="#262526" stroke-width="2.74074" stroke-linecap="round" stroke-linejoin="round"/>
</svg>
