<svg width="14" height="17" viewBox="0 0 14 17" fill="none" xmlns="http://www.w3.org/2000/svg">
<path d="M5.49463 1.16699H8.50635C8.80578 1.16707 9.09269 1.32597 9.29932 1.64648L10.3062 3.39062L10.4497 3.64062H13.1665V4.125H12.2144V14.5215C12.2142 15.3565 11.5679 15.9998 10.8101 16H3.19092C2.43296 16 1.78581 15.3566 1.78564 14.5215V4.125H0.833496V3.64062H3.55029L3.69482 3.39062L4.70752 1.63574V1.63477C4.87714 1.33919 5.17931 1.16699 5.49463 1.16699ZM2.21436 14.5215C2.21453 15.0525 2.634 15.5156 3.19092 15.5156H10.8101C11.3657 15.5154 11.7855 15.0513 11.7856 14.5215V4.125H2.21436V14.5215ZM5.60107 1.65137C5.38908 1.65146 5.1877 1.75274 5.06104 1.92285L5.01123 1.99902L4.49561 2.89062L4.06201 3.64062H9.93799L9.50439 2.89062L8.98486 1.99023H8.98389C8.86267 1.77798 8.63643 1.65137 8.39893 1.65137H5.60107Z" fill="black" stroke="#D32F2F"/>
</svg>
