<?xml version="1.0" encoding="UTF-8"?>
<svg id="Layer_1" xmlns="http://www.w3.org/2000/svg" xmlns:xlink="http://www.w3.org/1999/xlink" viewBox="0 0 24 24">
  <defs>
    <style>
      .cls-1 {
        fill: #c00000;
      }

      .cls-2 {
        fill: #fff;
      }

      .cls-3 {
        fill: #050505;
      }

      .cls-4 {
        fill: none;
      }

      .cls-5 {
        clip-path: url(#clippath);
      }
    </style>
    <clipPath id="clippath">
      <rect class="cls-4" x=".92" y=".78" width="22.58" height="22.58"/>
    </clipPath>
  </defs>
  <g class="cls-5">
    <path class="cls-2" d="M15.47,8.76c-1.8,1.8-4.71,1.8-6.51,0s-1.8-4.71,0-6.51c1.8-1.8,4.71-1.8,6.51,0,1.8,1.8,1.8,4.71,0,6.51"/>
    <path d="M12.21,10.22c-1.26,0-2.45-.49-3.34-1.38s-1.38-2.08-1.38-3.34.49-2.45,1.38-3.34c.89-.89,2.08-1.38,3.34-1.38s2.45.49,3.34,1.38c1.84,1.84,1.84,4.83,0,6.67-.89.89-2.08,1.38-3.34,1.38M12.21,1.01c-1.2,0-2.33.47-3.17,1.31s-1.31,1.98-1.31,3.17.47,2.33,1.31,3.17,1.98,1.31,3.17,1.31,2.33-.47,3.17-1.31c1.75-1.75,1.75-4.6,0-6.35-.85-.85-1.98-1.31-3.17-1.31"/>
    <path class="cls-1" d="M13.84,7.13c-.9.9-2.36.9-3.26,0-.9-.9-.9-2.36,0-3.26.9-.9,2.36-.9,3.26,0,.9.9.9,2.36,0,3.26"/>
    <path class="cls-2" d="M22.04,15.33c-1.8,1.8-4.71,1.8-6.51,0-1.8-1.8-1.8-4.71,0-6.51,1.8-1.8,4.71-1.8,6.51,0,1.8,1.8,1.8,4.71,0,6.51"/>
    <path d="M18.78,16.79c-1.21,0-2.42-.46-3.34-1.38-1.84-1.84-1.84-4.83,0-6.67,1.84-1.84,4.83-1.84,6.67,0,1.84,1.84,1.84,4.83,0,6.67-.92.92-2.13,1.38-3.34,1.38M18.78,7.59c-1.15,0-2.3.44-3.17,1.31-1.75,1.75-1.75,4.6,0,6.35,1.75,1.75,4.6,1.75,6.35,0,1.75-1.75,1.75-4.6,0-6.35-.88-.88-2.02-1.31-3.17-1.31"/>
    <path d="M20.41,13.71c-.9.9-2.36.9-3.26,0-.9-.9-.9-2.36,0-3.26.9-.9,2.36-.9,3.26,0,.9.9.9,2.36,0,3.26"/>
    <path class="cls-2" d="M8.89,15.33c-1.8,1.8-4.71,1.8-6.51,0-1.8-1.8-1.8-4.71,0-6.51,1.8-1.8,4.71-1.8,6.51,0,1.8,1.8,1.8,4.71,0,6.51"/>
    <path d="M5.64,16.8c-1.26,0-2.45-.49-3.34-1.38-.89-.89-1.38-2.08-1.38-3.34s.49-2.45,1.38-3.34c.89-.89,2.08-1.38,3.34-1.38s2.45.49,3.34,1.38c.89.89,1.38,2.08,1.38,3.34s-.49,2.45-1.38,3.34-2.08,1.38-3.34,1.38M5.64,7.59c-1.2,0-2.33.47-3.17,1.31-.85.85-1.32,1.98-1.32,3.17s.47,2.33,1.32,3.17c.85.85,1.98,1.31,3.17,1.31s2.33-.47,3.17-1.31,1.31-1.98,1.31-3.17-.47-2.33-1.31-3.17-1.98-1.31-3.17-1.31"/>
    <path d="M7.26,13.71c-.9.9-2.36.9-3.26,0-.9-.9-.9-2.36,0-3.26.9-.9,2.36-.9,3.26,0,.9.9.9,2.36,0,3.26"/>
    <path class="cls-2" d="M15.47,21.91c-1.8,1.8-4.71,1.8-6.51,0-1.8-1.8-1.8-4.71,0-6.51,1.8-1.8,4.71-1.8,6.51,0,1.8,1.8,1.8,4.71,0,6.51"/>
    <path d="M12.21,23.37c-1.21,0-2.42-.46-3.34-1.38s-1.38-2.08-1.38-3.34.49-2.45,1.38-3.34c.89-.89,2.08-1.38,3.34-1.38s2.45.49,3.34,1.38c1.84,1.84,1.84,4.83,0,6.67-.92.92-2.13,1.38-3.34,1.38M12.21,14.16c-1.2,0-2.33.47-3.17,1.31s-1.31,1.98-1.31,3.17.47,2.33,1.31,3.17c1.75,1.75,4.6,1.75,6.35,0,1.75-1.75,1.75-4.6,0-6.35-.85-.85-1.98-1.31-3.17-1.31"/>
    <path class="cls-1" d="M13.84,20.28c-.9.9-2.36.9-3.26,0-.9-.9-.9-2.36,0-3.26.9-.9,2.36-.9,3.26,0,.9.9.9,2.36,0,3.26"/>
    <path class="cls-2" d="M15.47,8.76c-1.8,1.8-4.71,1.8-6.51,0s-1.8-4.71,0-6.51c1.8-1.8,4.71-1.8,6.51,0,1.8,1.8,1.8,4.71,0,6.51"/>
    <path d="M12.21,10.22c-1.26,0-2.45-.49-3.34-1.38s-1.38-2.08-1.38-3.34.49-2.45,1.38-3.34c.89-.89,2.08-1.38,3.34-1.38s2.45.49,3.34,1.38c1.84,1.84,1.84,4.83,0,6.67-.89.89-2.08,1.38-3.34,1.38M12.21,1.01c-1.2,0-2.33.47-3.17,1.31s-1.31,1.98-1.31,3.17.47,2.33,1.31,3.17,1.98,1.31,3.17,1.31,2.33-.47,3.17-1.31c1.75-1.75,1.75-4.6,0-6.35-.85-.85-1.98-1.31-3.17-1.31"/>
    <path class="cls-1" d="M13.84,7.13c-.9.9-2.36.9-3.26,0-.9-.9-.9-2.36,0-3.26.9-.9,2.36-.9,3.26,0,.9.9.9,2.36,0,3.26"/>
    <path class="cls-2" d="M22.04,15.33c-1.8,1.8-4.71,1.8-6.51,0-1.8-1.8-1.8-4.71,0-6.51,1.8-1.8,4.71-1.8,6.51,0,1.8,1.8,1.8,4.71,0,6.51"/>
    <path d="M18.78,16.79c-1.21,0-2.42-.46-3.34-1.38-1.84-1.84-1.84-4.83,0-6.67,1.84-1.84,4.83-1.84,6.67,0,1.84,1.84,1.84,4.83,0,6.67-.92.92-2.13,1.38-3.34,1.38M18.78,7.59c-1.15,0-2.3.44-3.17,1.31-1.75,1.75-1.75,4.6,0,6.35,1.75,1.75,4.6,1.75,6.35,0,1.75-1.75,1.75-4.6,0-6.35-.88-.88-2.02-1.31-3.17-1.31"/>
    <path class="cls-3" d="M20.41,13.71c-.9.9-2.36.9-3.26,0-.9-.9-.9-2.36,0-3.26.9-.9,2.36-.9,3.26,0,.9.9.9,2.36,0,3.26"/>
    <path class="cls-2" d="M8.89,15.33c-1.8,1.8-4.71,1.8-6.51,0-1.8-1.8-1.8-4.71,0-6.51,1.8-1.8,4.71-1.8,6.51,0,1.8,1.8,1.8,4.71,0,6.51"/>
    <path d="M5.64,16.8c-1.26,0-2.45-.49-3.34-1.38-.89-.89-1.38-2.08-1.38-3.34s.49-2.45,1.38-3.34c.89-.89,2.08-1.38,3.34-1.38s2.45.49,3.34,1.38c.89.89,1.38,2.08,1.38,3.34s-.49,2.45-1.38,3.34-2.08,1.38-3.34,1.38M5.64,7.59c-1.2,0-2.33.47-3.17,1.31-.85.85-1.32,1.98-1.32,3.17s.47,2.33,1.32,3.17c.85.85,1.98,1.31,3.17,1.31s2.33-.47,3.17-1.31,1.31-1.98,1.31-3.17-.47-2.33-1.31-3.17-1.98-1.31-3.17-1.31"/>
    <path class="cls-3" d="M7.26,13.71c-.9.9-2.36.9-3.26,0-.9-.9-.9-2.36,0-3.26.9-.9,2.36-.9,3.26,0,.9.9.9,2.36,0,3.26"/>
    <path class="cls-2" d="M15.47,21.91c-1.8,1.8-4.71,1.8-6.51,0-1.8-1.8-1.8-4.71,0-6.51,1.8-1.8,4.71-1.8,6.51,0,1.8,1.8,1.8,4.71,0,6.51"/>
    <path d="M12.21,23.37c-1.21,0-2.42-.46-3.34-1.38s-1.38-2.08-1.38-3.34.49-2.45,1.38-3.34c.89-.89,2.08-1.38,3.34-1.38s2.45.49,3.34,1.38c1.84,1.84,1.84,4.83,0,6.67-.92.92-2.13,1.38-3.34,1.38M12.21,14.16c-1.2,0-2.33.47-3.17,1.31s-1.31,1.98-1.31,3.17.47,2.33,1.31,3.17c1.75,1.75,4.6,1.75,6.35,0,1.75-1.75,1.75-4.6,0-6.35-.85-.85-1.98-1.31-3.17-1.31"/>
    <path class="cls-1" d="M13.84,20.28c-.9.9-2.36.9-3.26,0-.9-.9-.9-2.36,0-3.26.9-.9,2.36-.9,3.26,0,.9.9.9,2.36,0,3.26"/>
  </g>
</svg>